<?xml version="1.0" standalone="no"?>
<!DOCTYPE svg PUBLIC "-//W3C//DTD SVG 20010904//EN"
 "http://www.w3.org/TR/2001/REC-SVG-20010904/DTD/svg10.dtd">
<svg version="1.0" xmlns="http://www.w3.org/2000/svg"
 width="260.000000pt" height="260.000000pt" viewBox="0 0 260.000000 260.000000"
 preserveAspectRatio="xMidYMid meet">
<metadata>
Created by potrace 1.14, written by Peter Selinger 2001-2017
</metadata>
<g transform="translate(0.000000,260.000000) scale(0.100000,-0.100000)"
fill="#000000" stroke="none">
<path d="M1463 1988 c-36 -22 -41 -42 -18 -68 8 -9 18 -34 21 -56 l5 -39 -153
0 c-110 1 -161 5 -181 15 -24 12 -30 12 -42 -1 -11 -11 -13 -22 -6 -47 5 -18
8 -32 6 -32 -2 0 -32 15 -67 33 -94 48 -250 113 -295 122 -13 3 -34 7 -48 10
-14 3 -37 8 -52 11 -35 7 -142 6 -197 -1 -59 -8 -172 -53 -236 -92 -75 -47
-146 -126 -171 -193 -29 -77 -34 -202 -10 -255 48 -104 154 -197 285 -249 78
-31 82 -32 296 -41 164 -7 219 -16 256 -43 35 -26 27 -93 -10 -92 -6 0 -3 5 7
11 38 22 9 69 -42 69 -27 0 -62 -56 -56 -88 5 -28 39 -60 72 -68 33 -9 92 16
116 48 26 35 27 96 2 129 -54 72 -146 116 -315 149 -174 35 -230 61 -314 143
-52 51 -65 71 -74 110 -33 156 106 237 266 155 52 -26 168 -149 241 -255 109
-157 217 -279 295 -333 11 -8 29 -22 39 -31 10 -9 54 -36 97 -60 53 -29 80
-50 80 -62 0 -10 11 -29 25 -43 23 -23 24 -27 11 -58 -10 -23 -27 -39 -59 -54
-26 -12 -52 -20 -59 -17 -7 3 -19 1 -27 -4 -19 -12 1 -47 40 -66 62 -33 198
-55 309 -51 58 2 116 9 130 14 14 5 28 10 32 11 55 11 70 16 87 33 31 29 26
41 -31 68 -29 14 -61 37 -72 52 l-19 27 27 31 c14 17 26 37 26 44 0 7 19 20
43 31 133 57 238 166 327 339 34 66 196 229 297 299 45 31 85 57 89 57 3 0 20
10 37 22 18 13 33 21 35 20 1 -2 23 6 47 18 74 36 59 45 -67 45 -69 0 -121 5
-134 12 -18 10 -25 9 -45 -8 -50 -44 -339 -162 -355 -146 -3 3 13 25 35 48 46
49 44 54 -26 81 -184 72 -248 93 -313 104 -42 8 -65 16 -71 27 -11 16 11 81
33 98 17 13 18 19 9 37 -25 47 -104 62 -158 30z"/>
</g>
</svg>
